<?xml version="1.0" encoding="UTF-8" standalone="no"?>
<!-- Created with Inkscape (http://www.inkscape.org/) -->

<svg
   width="19.293602mm"
   height="17.201454mm"
   viewBox="0 0 19.293602 17.201454"
   version="1.1"
   id="svg1"
   xml:space="preserve"
   sodipodi:docname="skillsbuild.svg"
   inkscape:version="1.3.2 (091e20e, 2023-11-25, custom)"
   xmlns:inkscape="http://www.inkscape.org/namespaces/inkscape"
   xmlns:sodipodi="http://sodipodi.sourceforge.net/DTD/sodipodi-0.dtd"
   xmlns="http://www.w3.org/2000/svg"
   xmlns:svg="http://www.w3.org/2000/svg"><sodipodi:namedview
     id="namedview1"
     pagecolor="#ffffff"
     bordercolor="#000000"
     borderopacity="0.25"
     inkscape:showpageshadow="2"
     inkscape:pageopacity="0.0"
     inkscape:pagecheckerboard="0"
     inkscape:deskcolor="#d1d1d1"
     inkscape:document-units="mm"
     inkscape:zoom="12.76881"
     inkscape:cx="21.61517"
     inkscape:cy="34.067388"
     inkscape:window-width="2400"
     inkscape:window-height="1494"
     inkscape:window-x="-11"
     inkscape:window-y="-11"
     inkscape:window-maximized="1"
     inkscape:current-layer="svg1" /><defs
     id="defs1" /><g
     id="layer1"
     transform="matrix(0.77553686,0,0,0.77553686,-66.343133,-106.57591)"><path
       style="fill:none;stroke:#000000;stroke-width:1;stroke-dasharray:none"
       d="m 103.97099,148.30595 0.0632,5.28099 1.17008,1.26491 h 1.04355 l 1.10679,-1.13842 -0.0316,-2.18196 z"
       id="path2" /><path
       style="fill:none;stroke:#000000;stroke-width:1;stroke-dasharray:none"
       d="m 92.450525,148.30595 -0.0632,5.28099 -1.17008,1.26491 h -1.04355 l -1.10679,-1.13842 0.0316,-2.18196 z"
       id="path2-1" /><ellipse
       style="fill:none;stroke:#000000;stroke-width:1.10636;stroke-dasharray:none"
       id="path3"
       cx="95.306381"
       cy="141.95432"
       rx="1.7493093"
       ry="1.5743783" /><ellipse
       style="fill:none;stroke:#000000;stroke-width:1.10636;stroke-dasharray:none"
       id="path3-4"
       cx="101.0587"
       cy="141.95432"
       rx="1.7493093"
       ry="1.5743783" /><path
       style="fill:none;stroke:#000000;stroke-width:1;stroke-dasharray:none"
       d="m 101.03008,147.29405 c -0.40055,-0.43218 -0.8011,-0.86434 -1.544235,-1.07517 -0.743138,-0.21083 -1.828828,-0.20029 -2.5667,0.0474 -0.737872,0.24771 -1.127888,0.7326 -1.312353,2.33484 -0.184466,1.60224 -0.163386,4.32173 -0.142306,7.04128"
       id="path4" /><path
       style="fill:none;stroke:#000000;stroke-width:1;stroke-dasharray:none"
       d="m 101.03008,147.29405 c -0.40055,-0.43218 -0.8011,-0.86434 -1.544235,-1.07517 -0.743138,-0.21083 -1.828828,-0.20029 -2.5667,0.0474 -0.737872,0.24771 -1.127888,0.7326 -1.312353,2.33484 -0.184466,1.60224 -0.163386,4.32173 -0.142306,7.04128"
       id="path4-4"
       transform="rotate(180,98.222568,151.29499)" /><path
       style="fill:none;stroke:#000000;stroke-width:1;stroke-dasharray:none"
       d="m 95.590982,149.12814 5.344228,0.0949"
       id="path5" /><path
       style="fill:none;stroke:#000000;stroke-width:1;stroke-dasharray:none"
       d="m 95.496114,153.49207 5.217736,-0.0316"
       id="path6" /></g></svg>
